<svg width="621" height="543" viewBox="0 0 621 543" fill="none" xmlns="http://www.w3.org/2000/svg">
<path d="M466.796 565.807C451.3 586.717 429.131 601.721 403.942 608.346C378.754 614.971 352.047 612.824 328.222 602.256C324.782 600.75 321.428 599.055 318.175 597.179L317.36 596.708C310.552 592.796 304.172 588.183 298.323 582.945L295.881 580.691L292.407 577.299C285.024 569.652 278.76 561.003 273.798 551.606C265.403 535.9 260.734 518.479 260.154 500.691C259.348 476.805 266.104 453.284 279.462 433.478C295.541 409.303 320.256 392.185 348.56 385.618C376.864 379.051 406.623 383.53 431.761 398.141L432.666 398.664C446.505 406.858 458.474 417.858 467.8 430.956C477.127 444.053 483.603 458.956 486.81 474.702C490.018 490.448 489.886 506.687 486.423 522.371C482.96 538.054 476.243 552.834 466.706 565.754L466.796 565.807ZM26.2921 324.32C11.7264 340.586 -7.22694 352.306 -28.299 358.078C-49.371 363.851 -71.669 363.43 -92.5236 356.867L-95.6891 355.763C-97.7089 355.079 -99.6763 354.305 -101.618 353.485L-104.588 352.252C-107.533 350.974 -110.354 349.587 -113.122 348.109L-115.839 346.541C-138.583 333.688 -156.155 313.335 -165.542 288.971L-166.655 284.833L-167.576 283.397C-169.02 279.02 -170.217 274.566 -171.161 270.055L-171.11 268.397L-171.819 264.19C-174.764 244.907 -172.733 225.199 -165.918 206.933C-159.104 188.667 -147.732 172.448 -132.88 159.814C-118.029 147.18 -100.189 138.55 -81.0537 134.741C-61.9179 130.932 -42.1196 132.07 -23.5353 138.048C-15.6506 140.706 -8.05069 144.145 -0.848828 148.313C3.93636 151.121 8.51456 154.268 12.8505 157.73L13.8012 158.279L16.5214 160.572C18.5693 162.358 20.5006 164.136 22.5155 166.083C25.5263 169.123 28.3766 172.317 31.0546 175.654L33.641 179.016C35.5499 181.565 37.316 184.151 38.9586 186.848C39.5967 187.82 40.1857 188.824 40.7232 189.856C42.1916 192.331 43.5173 194.844 44.7907 197.448C51.0411 210.41 54.7834 224.432 55.8205 238.777C56.9339 254.296 54.8917 269.876 49.8169 284.578C44.7421 299.28 36.7397 312.799 26.2921 324.32ZM597.025 603.2C610.937 573.912 618.917 542.158 620.506 509.763C622.096 477.368 617.265 444.971 606.289 414.431C595.314 383.892 578.41 355.813 556.551 331.808C534.691 307.802 508.306 288.344 478.91 274.549L474.401 272.428L474.038 272.219L469.929 270.449L469.159 270.005L465.341 268.463L463.6 267.819C462.558 267.218 461.361 266.888 460.234 266.539L460.008 266.409L455.399 264.772C452.233 263.668 449.042 262.609 445.798 261.64L440.942 260.223C439.356 259.729 437.717 259.326 436.079 258.922L431.559 257.76L430.659 257.541L426.358 256.625C424.765 256.248 423.191 255.942 421.546 255.655L416.591 254.723C411.629 253.908 406.615 253.183 401.613 252.646L397.841 252.277C394.023 251.921 390.21 251.729 386.403 251.701L381.354 251.558C379.65 251.478 377.964 251.47 376.279 251.461L371.197 251.481C367.846 251.535 364.442 251.68 361.117 251.689L357.259 251.993C355.003 252.137 352.792 252.307 350.529 252.568L347.63 252.883C346.359 252.993 345.179 253.156 343.927 253.337L342.818 253.481L338.447 254.152L334.549 254.734L330.787 255.395C327.284 256.025 323.91 256.85 320.31 257.544C316.71 258.238 315.133 258.774 312.563 259.461L309.851 260.186L306.328 261.165L302.369 262.376C300.818 262.867 299.293 263.312 297.787 263.829L294.107 265.08C293.055 265.437 292.075 265.776 291.043 266.205C287.097 267.603 283.305 269.151 279.443 270.719C277.93 271.352 276.489 271.967 275.092 272.607C272.229 273.908 269.313 275.298 266.728 276.639C266.372 276.801 266.025 276.983 265.689 277.184C263.156 278.434 260.669 279.711 258.201 281.058C256.798 281.816 255.395 282.573 254.037 283.356L250.159 285.577L211.808 313.526L189.768 232.507L174.192 178.246C160.357 125.96 129.044 79.9534 85.4538 47.8693L83.2808 46.6147L77.6561 42.7645L71.4552 38.7625L56.2433 29.9799C43.3741 23.2532 29.9976 17.5457 16.2371 12.91C-25.0612 -1.18652 -69.4109 -3.76405 -112.037 5.45489C-154.663 14.6738 -193.95 35.34 -225.669 65.2283L-225.504 64.4195C-242.781 80.5499 -257.582 99.1396 -269.429 119.589L-273.971 127.456C-274.832 128.947 -275.693 130.439 -276.581 131.976C-305.52 185.43 -312.694 248.004 -296.611 306.669L-295.108 312.117C-287.615 342.389 -274.019 370.822 -255.153 395.676C-236.287 420.529 -212.548 441.279 -185.39 456.656L-176.335 461.884C-138.782 483.569 -96.082 494.735 -52.7371 494.204C-9.39219 493.673 32.9916 481.465 69.9455 458.867C82.949 450.718 95.1152 441.308 106.268 430.772L106.337 431.173L125.403 516.925C128.081 527.03 140.231 578.65 154.48 607.19C173.93 646.287 203.505 679.473 240.128 703.293C243.638 705.682 247.434 707.994 251.554 710.373L252.414 710.869C281.724 727.559 314.137 738.077 347.654 741.774C381.171 745.471 415.082 742.269 447.297 732.366C479.898 722.485 510.059 705.892 535.842 683.654C561.624 661.416 582.457 634.026 596.999 603.246L597.025 603.2Z" fill="#5286F9"/>
</svg>
