<svg width="409" height="400" viewBox="0 0 409 400" fill="none" xmlns="http://www.w3.org/2000/svg">
<g clip-path="url(#clip0_1050_4216)">
<path fill-rule="evenodd" clip-rule="evenodd" d="M412.48 394.037C412.48 394.037 412.479 394.037 411.591 396.939C410.702 399.841 410.7 399.841 410.698 399.84L410.693 399.839L410.676 399.833L410.618 399.815C410.567 399.799 410.496 399.777 410.402 399.747C410.214 399.687 409.941 399.598 409.586 399.479C408.876 399.242 407.839 398.885 406.507 398.4C403.845 397.429 400.003 395.944 395.243 393.875C385.726 389.736 372.529 383.254 357.749 373.857C328.199 355.07 292.242 324.579 266.796 277.81C256.782 259.406 248.007 239.098 238.861 217.932C201.639 131.792 158.269 31.4229 0.218018 -12.8806L1.85281 -18.7265C162.939 26.4276 207.569 129.903 244.813 216.257C253.833 237.168 262.419 257.074 272.121 274.907C296.942 320.527 332.05 350.327 360.999 368.732C375.47 377.932 388.38 384.272 397.659 388.306C402.297 390.323 406.025 391.763 408.582 392.695C409.861 393.161 410.846 393.5 411.507 393.721C411.837 393.831 412.086 393.912 412.249 393.964C412.33 393.991 412.391 394.01 412.429 394.022L412.471 394.035L412.48 394.037Z" fill="white"/>
<path fill-rule="evenodd" clip-rule="evenodd" d="M427.651 367.543C427.651 367.543 427.649 367.542 426.49 371.338C425.33 375.134 425.328 375.134 425.326 375.133L425.32 375.131L425.302 375.126L425.242 375.107C425.193 375.091 425.121 375.069 425.029 375.04C424.846 374.981 424.58 374.894 424.236 374.779C423.549 374.549 422.548 374.204 421.264 373.734C418.699 372.795 415.003 371.358 410.423 369.348C401.265 365.329 388.559 359.012 374.281 349.794C345.729 331.363 310.809 301.28 285.47 254.707C274.88 235.244 265.948 213.702 256.659 191.302C221.538 106.602 181.332 9.64038 27.2126 -33.5612L29.3505 -41.2062C187.532 3.13367 229.406 104.376 264.576 189.415C273.678 211.421 282.33 232.341 292.433 250.909C316.983 296.03 350.832 325.211 378.578 343.122C392.447 352.075 404.771 358.199 413.607 362.077C418.023 364.015 421.565 365.391 423.988 366.278C425.199 366.721 426.13 367.042 426.75 367.25C427.061 367.354 427.293 367.429 427.444 367.478C427.519 367.502 427.575 367.519 427.609 367.53L427.645 367.541L427.651 367.543Z" fill="white"/>
<path fill-rule="evenodd" clip-rule="evenodd" d="M445.304 338.268C445.302 338.268 445.301 338.267 443.871 342.959C442.442 347.651 442.439 347.65 442.437 347.649L442.43 347.647L442.411 347.641L442.35 347.623C442.3 347.607 442.229 347.584 442.139 347.556C441.958 347.498 441.7 347.414 441.367 347.302C440.701 347.079 439.735 346.745 438.5 346.291C436.03 345.382 432.479 343.992 428.077 342.041C419.276 338.138 407.059 331.986 393.28 322.945C365.723 304.866 331.851 275.19 306.625 228.826C295.475 208.334 286.467 185.605 277.129 162.043C244.133 78.7833 207.014 -14.8791 56.6914 -57.0167L59.3332 -66.4633C214.79 -22.887 253.991 76.3525 287.079 160.114C296.163 183.111 304.787 204.941 315.229 224.134C339.514 268.765 372.113 297.329 398.65 314.74C411.918 323.445 423.655 329.351 432.045 333.07C436.239 334.93 439.592 336.241 441.879 337.082C443.022 337.502 443.898 337.805 444.477 337.999C444.767 338.097 444.983 338.167 445.122 338.211C445.191 338.233 445.241 338.249 445.271 338.258L445.301 338.267L445.304 338.268Z" fill="white"/>
<path fill-rule="evenodd" clip-rule="evenodd" d="M462.954 308.989C462.952 308.989 462.95 308.988 461.252 314.576C459.554 320.164 459.552 320.163 459.549 320.162L459.542 320.16L459.521 320.154L459.459 320.134C459.407 320.119 459.337 320.096 459.249 320.068C459.071 320.011 458.819 319.93 458.496 319.821C457.85 319.604 456.92 319.281 455.732 318.843C453.356 317.964 449.947 316.62 445.722 314.727C437.275 310.94 425.545 304.949 412.264 296.084C385.698 278.35 352.883 249.082 327.777 202.939C316.368 181.971 307.47 158.328 298.363 134.129C297.475 131.769 296.585 129.405 295.691 127.037C285.563 100.223 274.784 72.7621 259.597 46.4767C229.425 -5.74542 181.632 -53.7185 86.1672 -80.4782L89.3129 -91.7272C187.853 -64.1058 238.074 -14.1043 269.697 40.6277C285.408 67.819 296.472 96.0799 306.605 122.905C307.489 125.247 308.366 127.577 309.238 129.893C318.412 154.262 327.023 177.135 338.023 197.351C362.05 241.511 393.41 269.459 418.737 286.364C431.403 294.819 442.548 300.505 450.49 304.064C454.46 305.844 457.625 307.089 459.773 307.884C460.847 308.281 461.666 308.564 462.205 308.745C462.474 308.836 462.673 308.9 462.799 308.94C462.861 308.961 462.905 308.974 462.93 308.982L462.954 308.989Z" fill="white"/>
<path fill-rule="evenodd" clip-rule="evenodd" d="M479.776 280.639C479.774 280.638 479.771 280.637 477.807 287.122C475.842 293.606 475.839 293.606 475.836 293.605L475.827 293.602L475.805 293.595L475.741 293.575C475.689 293.559 475.62 293.537 475.532 293.509C475.357 293.453 475.111 293.373 474.798 293.268C474.172 293.058 473.275 292.745 472.133 292.321C469.849 291.472 466.582 290.172 462.532 288.335C454.434 284.662 443.19 278.832 430.407 270.139C404.829 252.747 373.081 223.889 348.105 177.983C336.26 156.213 327.482 131.574 318.556 106.521C318.066 105.145 317.576 103.767 317.084 102.389C307.573 75.7288 297.628 48.5312 283.325 22.5035C254.969 -29.0973 209.248 -76.5408 114.821 -103.011L118.471 -116.062C216.552 -88.5676 265.156 -38.6751 295.186 15.9707C310.076 43.0664 320.339 71.2189 329.832 97.83C330.283 99.094 330.732 100.354 331.179 101.61C340.222 126.985 348.671 150.692 359.992 171.5C383.768 215.199 413.899 242.531 438.012 258.928C450.074 267.13 460.63 272.594 468.119 275.99C471.862 277.689 474.836 278.869 476.844 279.615C477.849 279.988 478.611 280.253 479.107 280.42C479.355 280.504 479.537 280.562 479.648 280.598C479.704 280.616 479.742 280.628 479.763 280.634L479.776 280.639Z" fill="white"/>
<path fill-rule="evenodd" clip-rule="evenodd" d="M496.595 252.289C496.592 252.289 496.589 252.287 494.36 259.67C492.132 267.052 492.128 267.051 492.124 267.05L492.091 267.04L492.025 267.019C491.972 267.002 491.902 266.98 491.815 266.953C491.642 266.897 491.402 266.819 491.098 266.717C490.49 266.512 489.625 266.21 488.528 265.8C486.334 264.979 483.207 263.724 479.33 261.942C471.579 258.379 460.818 252.707 448.533 244.185C423.941 227.129 393.271 198.682 368.432 153.029C356.174 130.5 347.592 104.919 338.932 79.1004L338.464 77.7059C329.568 51.1897 320.454 24.2601 307.031 -1.50909C280.486 -52.4672 236.847 -99.3652 143.471 -125.54L147.625 -140.393C245.262 -113.024 292.258 -63.223 320.691 -8.64114C334.756 18.3596 344.216 46.4095 353.068 72.7945L353.303 73.4964C362.141 99.8395 370.354 124.319 381.96 145.651C405.495 188.907 434.408 215.624 457.306 231.506C468.764 239.454 478.724 244.692 485.757 247.924C489.273 249.54 492.054 250.653 493.92 251.351C494.853 251.7 495.557 251.945 496.01 252.098C496.236 252.174 496.399 252.227 496.497 252.258C496.545 252.274 496.577 252.284 496.593 252.289C496.6 252.29 496.603 252.292 496.603 252.292L496.6 252.29L496.595 252.289Z" fill="white"/>
<path fill-rule="evenodd" clip-rule="evenodd" d="M513.411 223.935C513.408 223.934 513.404 223.933 510.914 232.213C508.423 240.494 508.419 240.493 508.415 240.491L508.404 240.488L508.378 240.48L508.309 240.459C508.255 240.442 508.184 240.42 508.098 240.392C507.926 240.338 507.691 240.261 507.395 240.161C506.804 239.961 505.971 239.67 504.918 239.273C502.811 238.479 499.82 237.266 496.115 235.538C488.705 232.084 478.426 226.564 466.637 218.212C443.032 201.488 413.451 173.455 388.758 128.071C376.288 105.152 368.035 79.1012 359.835 52.9818L359.389 51.5605C351.253 25.6395 343.042 -0.516937 330.719 -25.5691C305.98 -75.8616 264.431 -122.197 172.122 -148.073L176.78 -164.727C273.988 -137.478 319.387 -87.7518 346.216 -33.2111C359.134 -6.95177 367.688 20.3052 375.722 45.906C375.92 46.5368 376.117 47.1668 376.315 47.7953C384.607 74.2071 392.401 98.6103 403.928 119.798C427.23 162.625 454.934 188.731 476.616 204.094C487.47 211.784 496.835 216.795 503.408 219.86C506.693 221.392 509.279 222.436 511 223.085C511.861 223.409 512.505 223.634 512.914 223.772C513.117 223.84 513.261 223.887 513.344 223.914C513.385 223.927 513.411 223.934 513.421 223.938L513.417 223.937L513.411 223.935ZM513.424 223.939C513.428 223.94 513.426 223.939 513.421 223.938L513.424 223.939Z" fill="white"/>
<path fill-rule="evenodd" clip-rule="evenodd" d="M530.225 195.582C530.221 195.582 530.216 195.58 527.469 204.759C524.722 213.937 524.717 213.936 524.711 213.934L524.7 213.93L524.672 213.922L524.599 213.899C524.543 213.882 524.471 213.86 524.385 213.832C524.213 213.778 523.982 213.703 523.694 213.605C523.118 213.41 522.315 213.127 521.304 212.743C519.282 211.975 516.425 210.804 512.888 209.129C505.815 205.779 496.016 200.411 484.723 192.224C462.107 175.828 433.624 148.211 409.086 103.112C396.615 80.1912 388.779 54.1722 381.197 28.2149C380.801 26.86 380.406 25.505 380.012 24.1501C372.744 -0.770859 365.465 -25.7297 354.388 -49.6807C331.446 -99.2831 291.998 -145.035 200.773 -170.606L205.934 -189.061C302.729 -161.928 346.54 -112.256 371.757 -57.7329C383.458 -32.4333 391.106 -6.19536 398.286 18.4394C398.715 19.9106 399.142 21.3762 399.569 22.8355C407.223 49.041 414.557 73.1074 425.895 93.9446C448.975 136.365 475.481 161.864 495.95 176.703C506.2 184.133 514.967 188.913 521.074 191.806C524.128 193.253 526.516 194.227 528.089 194.824C528.876 195.123 529.459 195.327 529.82 195.45C530.001 195.511 530.126 195.551 530.192 195.572L530.244 195.588L530.233 195.585L530.225 195.582Z" fill="white"/>
</g>
<defs>
<clipPath id="clip0_1050_4216">
<rect width="409" height="400" fill="white" transform="matrix(1 0 0 -1 0 400)"/>
</clipPath>
</defs>
</svg>
