<svg width="400" height="400" viewBox="0 0 400 400" fill="none" xmlns="http://www.w3.org/2000/svg">
<g clip-path="url(#clip0_1050_4207)">
<path fill-rule="evenodd" clip-rule="evenodd" d="M-3.40302 5.96264C-3.40302 5.96264 -3.40228 5.96298 -2.53354 3.06083C-1.66406 0.158692 -1.66251 0.159131 -1.66095 0.159683L-1.65555 0.16132L-1.63931 0.166553L-1.58221 0.184897C-1.53278 0.200643 -1.46252 0.223442 -1.37064 0.253438C-1.18762 0.313421 -0.92041 0.402196 -0.572937 0.520848C0.121277 0.758151 1.13516 1.11503 2.43787 1.60034C5.04172 2.57091 8.79929 4.05555 13.4541 6.1252C22.7622 10.2636 35.6688 16.7463 50.1236 26.1429C79.0232 44.9303 114.189 75.4213 139.075 122.19C148.869 140.594 157.45 160.902 166.395 182.068C202.798 268.208 245.214 368.577 399.787 412.881L398.188 418.727C240.646 373.572 196.998 270.097 160.574 183.743C151.753 162.832 143.356 142.926 133.867 125.093C109.592 79.4727 75.2564 49.6733 46.9445 31.2677C32.7923 22.0678 20.1661 15.7282 11.0919 11.6935C6.55603 9.67661 2.90973 8.23701 0.409332 7.30494C-0.841644 6.83894 -1.80536 6.49992 -2.45169 6.27914C-2.77448 6.16876 -3.0177 6.08795 -3.17755 6.03562C-3.25708 6.00945 -3.31656 5.99041 -3.35364 5.97834L-3.39453 5.96547L-3.40302 5.96264Z" fill="white"/>
<path fill-rule="evenodd" clip-rule="evenodd" d="M-18.2409 32.4571C-18.2409 32.4571 -18.2386 32.4578 -17.105 28.6618C-15.9706 24.8658 -15.9691 24.8664 -15.9668 24.8671L-15.9614 24.8689L-15.9436 24.8744L-15.8849 24.893C-15.8363 24.9087 -15.766 24.9313 -15.6765 24.9606C-15.4973 25.0194 -15.2371 25.1057 -14.9012 25.2208C-14.2285 25.451 -13.2494 25.7963 -11.9946 26.2659C-9.48572 27.2049 -5.87103 28.6421 -1.39151 30.6523C7.56448 34.6716 19.9907 40.9883 33.9552 50.2058C61.8788 68.6367 96.0301 98.7202 120.812 145.293C131.168 164.757 139.904 186.298 148.988 208.698C183.337 293.398 222.658 390.36 373.386 433.561L371.295 441.206C216.595 396.866 175.642 295.624 141.246 210.585C132.344 188.58 123.883 167.659 114.002 149.091C89.9923 103.97 56.888 74.7889 29.7529 56.8781C16.1884 47.9247 4.13589 41.8013 -4.5058 37.9233C-8.82471 35.9848 -12.2888 34.6089 -14.6579 33.7222C-15.8425 33.2789 -16.7529 32.958 -17.3599 32.7502C-17.6633 32.6465 -17.8903 32.5709 -18.0386 32.5225C-18.1119 32.4983 -18.166 32.4809 -18.2 32.4702L-18.2347 32.459L-18.2409 32.4571Z" fill="white"/>
<path fill-rule="evenodd" clip-rule="evenodd" d="M-35.5051 61.7316C-35.5036 61.732 -35.502 61.7325 -34.1036 57.0408C-32.7059 52.3492 -32.7036 52.3498 -32.7013 52.3506L-32.6943 52.3527L-32.6758 52.3585L-32.6163 52.3774C-32.5669 52.3932 -32.4981 52.4155 -32.4093 52.4444C-32.2333 52.5021 -31.9808 52.5861 -31.6549 52.6978C-31.0032 52.9211 -30.0588 53.255 -28.8511 53.7092C-26.4356 54.6176 -22.9623 56.0079 -18.6573 57.9595C-10.0503 61.8616 1.89798 68.0143 15.3744 77.0547C42.325 95.1345 75.4516 124.81 100.123 171.174C111.027 191.666 119.837 214.395 128.969 237.957C161.239 321.217 197.541 414.879 344.556 457.017L341.972 466.463C189.937 422.887 151.598 323.648 119.238 239.886C110.354 216.889 101.92 195.059 91.7072 175.866C67.9574 131.235 36.0756 102.671 10.1219 85.2602C-2.85416 76.555 -14.3321 70.6494 -22.5375 66.9296C-26.6395 65.0702 -29.919 63.7588 -32.1553 62.918C-33.2735 62.4976 -34.1298 62.195 -34.6966 62.0007C-34.98 61.9035 -35.1916 61.8334 -35.3267 61.789C-35.3947 61.7669 -35.4434 61.7512 -35.4727 61.7418L-35.502 61.7325L-35.5051 61.7316Z" fill="white"/>
<path fill-rule="evenodd" clip-rule="evenodd" d="M-52.7668 91.011C-52.7644 91.011 -52.7629 91.0118 -51.1019 85.4237C-49.4417 79.8355 -49.4394 79.8371 -49.4363 79.8379L-49.4293 79.8403L-49.4092 79.8458L-49.3482 79.8656C-49.298 79.8814 -49.2293 79.9035 -49.1428 79.932C-48.9691 79.9889 -48.7227 80.0703 -48.4069 80.1786C-47.7753 80.396 -46.8656 80.7185 -45.7034 81.1573C-43.3799 82.0355 -40.0463 83.3802 -35.9142 85.2735C-27.6525 89.06 -16.1806 95.0506 -3.19223 103.916C22.7892 121.65 54.8827 150.918 79.4363 197.061C90.5939 218.029 99.2958 241.672 108.202 265.871C109.071 268.231 109.941 270.595 110.816 272.963C120.721 299.777 131.263 327.238 146.115 353.523C175.624 405.745 222.365 453.719 315.729 480.478L312.653 491.727C216.281 464.106 167.165 414.104 136.238 359.372C120.873 332.181 110.052 303.92 100.142 277.095C99.2773 274.753 98.4193 272.423 97.5668 270.107C88.5946 245.738 80.173 222.865 69.4155 202.649C45.9174 158.489 15.2472 130.541 -9.52274 113.636C-21.9096 105.181 -32.81 99.4948 -40.5768 95.9359C-44.4594 94.1565 -47.5544 92.9106 -49.6556 92.1162C-50.7058 91.7193 -51.5073 91.4355 -52.0339 91.2545C-52.2972 91.1644 -52.4919 91.0996 -52.6146 91.06C-52.6756 91.0395 -52.7189 91.026 -52.7436 91.0181L-52.7668 91.011Z" fill="white"/>
<path fill-rule="evenodd" clip-rule="evenodd" d="M-69.2185 119.361C-69.2162 119.362 -69.2138 119.363 -67.2926 112.878C-65.3714 106.394 -65.3683 106.394 -65.3652 106.395L-65.3568 106.398L-65.3351 106.405L-65.2726 106.425C-65.2216 106.441 -65.1536 106.463 -65.0679 106.491C-64.8965 106.547 -64.6563 106.627 -64.3498 106.732C-63.7374 106.942 -62.8602 107.255 -61.7436 107.679C-59.5096 108.528 -56.315 109.828 -52.3536 111.665C-44.4339 115.338 -33.4378 121.168 -20.9359 129.861C4.07959 147.253 35.129 176.111 59.5552 222.017C71.1398 243.787 79.7244 268.426 88.4533 293.479C88.9328 294.855 89.4124 296.233 89.8935 297.611C99.1946 324.271 108.921 351.469 122.91 377.496C150.642 429.097 195.356 476.541 287.706 503.011L284.136 516.062C188.213 488.568 140.679 438.675 111.31 384.029C96.7475 356.934 86.7104 328.781 77.4255 302.17C76.9846 300.906 76.546 299.646 76.1081 298.39C67.2641 273.015 59.0016 249.308 47.9297 228.5C24.6765 184.801 -4.79147 157.469 -28.3737 141.072C-40.1706 132.87 -50.4934 127.406 -57.8177 124.01C-61.4787 122.311 -64.3868 121.131 -66.3513 120.385C-67.3336 120.012 -68.0787 119.747 -68.5645 119.58C-68.8069 119.496 -68.9845 119.438 -69.0934 119.402C-69.1482 119.384 -69.1853 119.372 -69.2061 119.366L-69.2185 119.361Z" fill="white"/>
<path fill-rule="evenodd" clip-rule="evenodd" d="M-85.6672 147.711C-85.6649 147.711 -85.6618 147.713 -83.4819 140.33C-81.3028 132.948 -81.2989 132.949 -81.295 132.95L-81.2626 132.96L-81.1977 132.981C-81.146 132.998 -81.0772 133.02 -80.9931 133.047C-80.8232 133.103 -80.5884 133.181 -80.2911 133.283C-79.6966 133.488 -78.851 133.79 -77.7784 134.2C-75.6325 135.021 -72.5738 136.276 -68.7823 138.058C-61.2016 141.621 -50.678 147.293 -38.6626 155.815C-14.6124 172.871 15.383 201.318 39.6756 246.971C51.664 269.5 60.0563 295.081 68.5266 320.9L68.9837 322.294C77.6841 348.81 86.5977 375.74 99.7251 401.509C125.686 452.467 168.365 499.365 259.686 525.54L255.623 540.393C160.135 513.024 114.173 463.223 86.366 408.641C72.6108 381.64 63.3583 353.591 54.7011 327.206L54.471 326.504C45.8278 300.16 37.7953 275.681 26.4447 254.349C3.42776 211.093 -24.8487 184.376 -47.2425 168.494C-58.4487 160.546 -68.19 155.308 -75.068 152.076C-78.5066 150.46 -81.2263 149.347 -83.051 148.649C-83.9638 148.3 -84.6526 148.055 -85.095 147.902C-85.3159 147.826 -85.4757 147.773 -85.5715 147.742C-85.6186 147.726 -85.6502 147.716 -85.6657 147.711C-85.6719 147.71 -85.675 147.708 -85.6757 147.708L-85.6719 147.71L-85.6672 147.711Z" fill="white"/>
<path fill-rule="evenodd" clip-rule="evenodd" d="M-102.114 176.065C-102.11 176.066 -102.107 176.067 -99.671 167.787C-97.2355 159.506 -97.2317 159.507 -97.227 159.509L-97.217 159.512L-97.1915 159.52L-97.1236 159.541C-97.071 159.558 -97.0015 159.58 -96.9174 159.608C-96.749 159.662 -96.5189 159.739 -96.2301 159.839C-95.6517 160.039 -94.837 160.33 -93.8069 160.727C-91.7467 161.521 -88.8216 162.734 -85.1977 164.462C-77.9514 167.916 -67.8981 173.436 -56.3691 181.788C-33.2834 198.512 -4.35287 226.545 19.7969 271.929C31.9923 294.848 40.0633 320.899 48.0826 347.018L48.5189 348.44C56.4765 374.36 64.5066 400.517 76.5583 425.569C100.753 475.862 141.388 522.197 231.666 548.073L227.11 564.727C132.041 537.478 87.6409 487.752 61.4023 433.211C48.7691 406.952 40.4031 379.695 32.546 354.094C32.3521 353.463 32.1591 352.833 31.9653 352.205C23.8564 325.793 16.234 301.39 4.96063 280.202C-17.8293 237.375 -44.9236 211.269 -66.1282 195.906C-76.7436 188.216 -85.9019 183.205 -92.3305 180.14C-95.5436 178.608 -98.0726 177.564 -99.756 176.915C-100.598 176.591 -101.228 176.366 -101.627 176.228C-101.826 176.16 -101.967 176.113 -102.048 176.086C-102.088 176.073 -102.114 176.066 -102.124 176.062L-102.12 176.063L-102.114 176.065ZM-102.127 176.061C-102.13 176.06 -102.128 176.061 -102.124 176.062L-102.127 176.061Z" fill="white"/>
<path fill-rule="evenodd" clip-rule="evenodd" d="M-118.558 204.417C-118.554 204.418 -118.549 204.42 -115.863 195.241C-113.175 186.062 -113.171 186.064 -113.165 186.066L-113.154 186.07L-113.127 186.077L-113.055 186.1C-113 186.118 -112.931 186.14 -112.846 186.168C-112.678 186.222 -112.452 186.297 -112.171 186.395C-111.607 186.59 -110.822 186.873 -109.832 187.257C-107.855 188.024 -105.061 189.196 -101.602 190.871C-94.685 194.221 -85.1012 199.589 -74.0572 207.775C-51.9382 224.172 -24.0819 251.789 -0.084198 296.888C12.1127 319.809 19.776 345.828 27.1907 371.785C27.5784 373.14 27.9644 374.495 28.3505 375.85C35.4579 400.771 42.5768 425.73 53.41 449.681C75.8471 499.283 114.427 545.035 203.645 570.606L198.598 589.061C103.933 561.928 61.0857 512.256 36.4231 457.733C24.9799 432.433 17.5004 406.195 10.478 381.56C10.0587 380.089 9.6409 378.624 9.22392 377.164C1.73743 350.959 -5.43475 326.892 -16.5228 306.055C-39.095 263.635 -65.0186 238.136 -85.0363 223.297C-95.061 215.866 -103.635 211.087 -109.608 208.194C-112.595 206.747 -114.93 205.773 -116.469 205.175C-117.239 204.877 -117.809 204.673 -118.161 204.55C-118.338 204.489 -118.46 204.449 -118.525 204.428L-118.576 204.412L-118.565 204.415L-118.558 204.417Z" fill="white"/>
</g>
<defs>
<clipPath id="clip0_1050_4207">
<rect width="400" height="400" fill="white" transform="matrix(-1 0 0 1 400 0)"/>
</clipPath>
</defs>
</svg>
