<svg width="133" height="27" viewBox="0 0 133 27" fill="none" xmlns="http://www.w3.org/2000/svg">
<path fill-rule="evenodd" clip-rule="evenodd" d="M91.8118 0C90.3055 0 88.942 1.23467 88.942 2.85925C88.942 4.48382 90.3055 5.68368 91.8118 5.68368C93.3189 5.68368 94.6816 4.44901 94.6816 2.85925C94.6816 1.26949 93.3189 0 91.8118 0ZM91.678 8.1855H89.1951V26.9888H94.4323V10.8962C94.4323 9.3993 93.1988 8.1855 91.678 8.1855ZM54.9693 8.25278C59.6406 8.5986 63.3546 12.2399 63.7177 16.8375V16.8305C63.9253 19.4693 63.034 21.992 61.2087 23.93C59.4119 25.8353 56.8722 26.9284 54.2406 26.9284C54.0543 26.9284 53.8845 26.9237 53.7195 26.9122C52.0358 26.824 50.4064 26.2925 49.0009 25.3758C48.1023 24.7902 46.9142 23.5902 46.4416 23.1129C46.3747 23.0453 46.3222 22.9923 46.2868 22.9575L43.9853 20.4835C42.8322 24.1667 39.4318 26.759 35.3854 26.9192C34.9444 26.9377 34.5459 26.9307 34.1663 26.9006C33.1735 26.824 32.2114 26.5965 31.3059 26.2298C30.167 25.768 29.1436 25.0671 28.2711 24.2108L21.5623 17.615L19.3999 15.4868L18.1619 14.2684C18.1619 14.2684 17.82 13.9156 17.4734 13.6139C17.0748 13.2959 16.5561 13.0824 15.9312 13.5767C15.4124 14.0177 15.5256 14.765 16.0562 15.2036C16.0892 15.2292 16.5561 15.6911 17.3154 16.4708C17.4969 16.6565 17.6809 16.8468 17.8602 17.0371C18.4449 17.6521 18.9071 18.3809 19.1736 19.1839C19.4801 20.1145 19.5626 21.1426 19.3552 22.2102C18.9071 24.5171 17.082 26.3621 14.7474 26.8518C12.7101 27.2789 10.7976 26.6987 9.42765 25.5197L8.86639 24.9697L0 16.2782L1.62236 14.6815C2.70944 13.6116 4.47328 13.6116 5.56036 14.6815L8.49148 17.5547L12.5639 21.4328C12.6723 21.5395 12.7713 21.6277 12.8633 21.6996C12.878 21.7115 12.8927 21.7225 12.9069 21.7333C12.9179 21.7415 12.9286 21.7496 12.9388 21.7577C12.9411 21.76 12.9458 21.7623 12.9458 21.7623L12.962 21.7739C12.981 21.7877 12.9981 21.8001 13.0166 21.811C13.0166 21.8133 13.0213 21.8156 13.0213 21.8156C13.3067 21.9735 13.7335 21.9827 13.7335 21.9827C14.0754 21.9827 14.389 21.7878 14.5282 21.4814C14.6295 21.254 14.6295 21.0893 14.6225 20.943V20.9198C14.6201 20.892 14.6178 20.8641 14.6154 20.8386V20.834C14.6131 20.8061 14.6083 20.7782 14.6036 20.7527C14.6013 20.7458 14.5989 20.7388 14.5989 20.7318C14.5969 20.723 14.5945 20.7138 14.592 20.7045L14.5907 20.6995C14.5877 20.6885 14.5847 20.6773 14.5823 20.6669C14.58 20.6645 14.58 20.6599 14.58 20.6576C14.5729 20.6344 14.5659 20.6111 14.5588 20.5903C14.5576 20.5868 14.5564 20.5839 14.5553 20.581C14.5541 20.5781 14.5529 20.5752 14.5517 20.5717C14.5482 20.5636 14.5453 20.5555 14.5423 20.5473C14.5393 20.5392 14.5364 20.5311 14.5329 20.5229L14.532 20.519L14.5305 20.516L14.5288 20.5124L14.5282 20.5091L14.5231 20.4987L14.5174 20.4865L14.5132 20.4772L14.5105 20.4715C14.5087 20.4677 14.5069 20.4641 14.505 20.4606L14.5022 20.4557C14.5016 20.4537 14.4998 20.4503 14.4998 20.4503L14.4975 20.4464L14.4955 20.443L14.4942 20.4404L14.4934 20.4389L14.4927 20.4371C14.488 20.4255 14.481 20.4139 14.4739 20.4023C14.4715 20.3953 14.4692 20.3884 14.4645 20.3837C14.4574 20.3698 14.448 20.3558 14.4386 20.342L14.4244 20.321C14.4174 20.3141 14.4126 20.3072 14.4079 20.3002L14.4018 20.2929C14.3961 20.2862 14.3909 20.2796 14.3858 20.2731C14.3805 20.2664 14.3753 20.2598 14.3702 20.2538C14.3678 20.2538 14.3654 20.2491 14.3654 20.2491C14.3153 20.1906 14.2651 20.1422 14.2219 20.1005L14.2063 20.0854L14.1886 20.0681C14.1346 20.0138 14.0742 19.9619 14.0142 19.9103C13.9588 19.8628 13.9035 19.8153 13.8537 19.7664L12.3917 18.4366L12.3752 18.4203L12.288 18.3344L12.2833 18.3298C11.5593 17.6011 11.0264 16.689 10.7576 15.6725C10.6326 15.1921 10.5642 14.6885 10.5642 14.1686C10.5642 10.9171 13.2124 8.27138 16.5019 8.20868H16.6221C18.4425 8.20868 20.0743 9.00008 21.185 10.251C21.2416 10.2998 25.8304 14.7488 25.8304 14.7488C26.8161 11.5553 29.4879 9.08595 32.9094 8.42453C33.8126 8.24813 34.6968 8.18783 35.5387 8.24355C35.6589 8.25278 35.7769 8.26208 35.8971 8.2737C37.9745 8.48258 39.9011 9.43178 41.382 10.88L45.2257 14.6397C45.7256 13.159 46.6005 11.8037 47.7842 10.7245C49.7438 8.9328 52.2952 8.05553 54.9693 8.25278ZM37.9039 20.82C38.5806 20.2143 39.0711 19.4066 39.255 18.5039H39.2573C39.5026 17.3063 39.2621 16.1065 38.5829 15.1294C38.2693 14.6722 37.8755 14.2869 37.4157 13.9783C36.4182 13.3076 35.2015 13.0731 33.9847 13.3145C32.3176 13.6464 30.9593 14.9646 30.6032 16.5985C30.5985 16.6286 30.5938 16.6611 30.5867 16.6912C30.5443 16.8932 30.5136 17.0998 30.4994 17.311C30.4405 18.2277 30.6645 19.1165 31.1526 19.8894C31.5134 20.4626 32.011 20.9523 32.5911 21.3074C33.4258 21.8203 34.395 22.0361 35.3877 21.9363C36.2697 21.8482 37.0761 21.4977 37.7293 20.9686L37.7321 20.966C37.7339 20.9645 37.7371 20.9624 37.7371 20.9624L37.7384 20.9615L37.7402 20.9601L37.7411 20.9593C37.7506 20.9512 37.7605 20.943 37.7706 20.9349C37.7806 20.9268 37.7906 20.9186 37.8 20.9105C37.8331 20.8827 37.8661 20.8548 37.8991 20.8247L37.9039 20.82ZM54.7146 21.9131C56.7638 21.7066 58.4144 20.0936 58.6408 18.0791L58.6431 18.0815C58.7917 16.7493 58.3295 15.445 57.3722 14.5028C56.5327 13.6766 55.4126 13.224 54.2359 13.224C54.0732 13.224 53.9081 13.231 53.7431 13.2495C51.6326 13.4747 49.9631 15.2036 49.8263 17.2877C49.7673 18.2045 49.9914 19.0934 50.4795 19.8662C50.8403 20.4394 51.3379 20.9291 51.9179 21.2842C52.7527 21.7971 53.7218 22.013 54.7146 21.9131ZM84.3767 0.79554C80.9218 0.923183 78.6676 2.63594 78.6676 6.71826V26.9975H83.9048V12.5203H85.3617C86.5526 12.5203 87.5193 11.5688 87.5193 10.3967V8.18505H83.9048V7.447C83.9048 5.98256 84.4421 4.85 86.0578 4.85H87.5999V0.786255L84.379 0.79554H84.3767ZM75.8521 8.1855C76.2812 8.1855 76.7478 8.2203 77.2859 8.36423L77.2882 8.36655L77.3285 12.5486H77.2912C76.4378 12.5468 70.3695 12.5338 70.3695 18.3043L70.3294 26.9888H65.0922V8.1855H67.5752C69.0915 8.37353 70.3294 9.75435 70.3294 11.2559V12.4489C70.3294 12.4489 70.9685 8.1855 75.8521 8.1855ZM107.398 8.23868C102.123 8.23935 101.246 12.5879 101.246 12.5879V10.9401C101.246 9.44783 100.018 8.23868 98.5013 8.23868H96.026V26.9885H101.246L101.237 17.7494V17.0322C101.237 15.0479 102.871 13.4396 104.888 13.4396C106.904 13.4396 108.514 15.0201 108.538 16.9858C108.538 16.9914 108.537 17.0047 108.536 17.0252C108.533 17.1063 108.526 17.3018 108.528 17.5962C108.533 19.91 108.564 27.0002 108.564 27.0002L113.799 26.9885V15.3149C113.799 10.5391 111.009 8.23913 107.398 8.23868ZM124.379 21.8876C126.412 22.0478 128.181 20.8456 128.848 19.1096H129.544C132.109 19.1096 133.489 22.122 131.748 23.9763C130.003 25.833 127.506 26.9981 124.74 26.9981C118.489 26.9981 113.622 21.0545 115.668 14.6072C116.555 11.8153 118.779 9.59888 121.611 8.703C125.558 7.45211 129.331 8.68215 131.718 11.2002C133.482 13.0592 132.135 16.0972 129.55 16.0972H128.866C128.252 14.4425 126.636 13.2588 124.74 13.2588C122.213 13.2588 120.182 15.3638 120.361 17.8912C120.512 20.0031 122.236 21.7182 124.379 21.8876Z" fill="white"/>
</svg>
