<svg width="133" height="28" viewBox="0 0 133 28" fill="none" xmlns="http://www.w3.org/2000/svg">
<g id="Clip path group">
<mask id="mask0_1086_119" style="mask-type:luminance" maskUnits="userSpaceOnUse" x="0" y="0" width="133" height="28">
<g id="clip0_4021_407">
<path id="Vector" d="M133 0.5H0V27.5H133V0.5Z" fill="white"/>
</g>
</mask>
<g mask="url(#mask0_1086_119)">
<g id="Group">
<path id="Vector_2" fill-rule="evenodd" clip-rule="evenodd" d="M91.8118 0.5C90.3055 0.5 88.942 1.73467 88.942 3.35925C88.942 4.98382 90.3055 6.18368 91.8118 6.18368C93.3189 6.18368 94.6816 4.94901 94.6816 3.35925C94.6816 1.76949 93.3189 0.5 91.8118 0.5ZM91.678 8.6855H89.1951V27.4888H94.4323V11.3962C94.4323 9.8993 93.1988 8.6855 91.678 8.6855ZM54.9693 8.75278C59.6406 9.0986 63.3546 12.7399 63.7177 17.3375V17.3305C63.9253 19.9693 63.034 22.492 61.2087 24.43C59.4119 26.3353 56.8722 27.4284 54.2406 27.4284C54.0543 27.4284 53.8845 27.4237 53.7195 27.4122C52.0358 27.324 50.4064 26.7925 49.0009 25.8758C48.1023 25.2902 46.9142 24.0902 46.4416 23.6129C46.3747 23.5453 46.3222 23.4923 46.2868 23.4575L43.9853 20.9835C42.8322 24.6667 39.4318 27.259 35.3854 27.4192C34.9444 27.4377 34.5459 27.4307 34.1663 27.4006C33.1735 27.324 32.2114 27.0965 31.3059 26.7298C30.167 26.268 29.1436 25.5671 28.2711 24.7108L21.5623 18.115L19.3999 15.9868L18.1619 14.7684C18.1619 14.7684 17.82 14.4156 17.4734 14.1139C17.0748 13.7959 16.5561 13.5824 15.9312 14.0767C15.4124 14.5177 15.5256 15.265 16.0562 15.7036C16.0892 15.7292 16.5561 16.1911 17.3154 16.9708C17.4969 17.1565 17.6809 17.3468 17.8602 17.5371C18.4449 18.1521 18.9071 18.8809 19.1736 19.6839C19.4801 20.6145 19.5626 21.6426 19.3552 22.7102C18.9071 25.0171 17.082 26.8621 14.7474 27.3518C12.7101 27.7789 10.7976 27.1987 9.42765 26.0197L8.86639 25.4697L0 16.7782L1.62236 15.1815C2.70944 14.1116 4.47328 14.1116 5.56036 15.1815L8.49148 18.0547L12.5639 21.9328C12.6723 22.0395 12.7713 22.1277 12.8633 22.1996C12.878 22.2115 12.8927 22.2225 12.9069 22.2333C12.9179 22.2415 12.9286 22.2496 12.9388 22.2577C12.9411 22.26 12.9458 22.2623 12.9458 22.2623L12.962 22.2739C12.981 22.2877 12.9981 22.3001 13.0166 22.311C13.0166 22.3133 13.0213 22.3156 13.0213 22.3156C13.3067 22.4735 13.7335 22.4827 13.7335 22.4827C14.0754 22.4827 14.389 22.2878 14.5282 21.9814C14.6295 21.754 14.6295 21.5893 14.6225 21.443V21.4198C14.6201 21.392 14.6178 21.3641 14.6154 21.3386V21.334C14.6131 21.3061 14.6083 21.2782 14.6036 21.2527C14.6013 21.2458 14.5989 21.2388 14.5989 21.2318C14.5969 21.223 14.5945 21.2138 14.592 21.2045L14.5907 21.1995C14.5877 21.1885 14.5847 21.1773 14.5823 21.1669C14.58 21.1645 14.58 21.1599 14.58 21.1576C14.5729 21.1344 14.5659 21.1111 14.5588 21.0903C14.5576 21.0868 14.5564 21.0839 14.5553 21.081C14.5541 21.0781 14.5529 21.0752 14.5517 21.0717C14.5482 21.0636 14.5453 21.0555 14.5423 21.0473C14.5393 21.0392 14.5364 21.0311 14.5329 21.0229L14.532 21.019L14.5305 21.016L14.5288 21.0124L14.5282 21.0091L14.5231 20.9987L14.5174 20.9865L14.5132 20.9772L14.5105 20.9715C14.5087 20.9677 14.5069 20.9641 14.505 20.9606L14.5022 20.9557C14.5016 20.9537 14.4998 20.9503 14.4998 20.9503L14.4975 20.9464L14.4955 20.943L14.4942 20.9404L14.4934 20.9389L14.4927 20.9371C14.488 20.9255 14.481 20.9139 14.4739 20.9023C14.4715 20.8953 14.4692 20.8884 14.4645 20.8837C14.4574 20.8698 14.448 20.8558 14.4386 20.842L14.4244 20.821C14.4174 20.8141 14.4126 20.8072 14.4079 20.8002L14.4018 20.7929C14.3961 20.7862 14.3909 20.7796 14.3858 20.7731C14.3805 20.7664 14.3753 20.7598 14.3702 20.7538C14.3678 20.7538 14.3654 20.7491 14.3654 20.7491C14.3153 20.6906 14.2651 20.6422 14.2219 20.6005L14.2063 20.5854L14.1886 20.5681C14.1346 20.5138 14.0742 20.4619 14.0142 20.4103C13.9588 20.3628 13.9035 20.3153 13.8537 20.2664L12.3917 18.9366L12.3752 18.9203L12.288 18.8344L12.2833 18.8298C11.5593 18.1011 11.0264 17.189 10.7576 16.1725C10.6326 15.6921 10.5642 15.1885 10.5642 14.6686C10.5642 11.4171 13.2124 8.77138 16.5019 8.70868H16.6221C18.4425 8.70868 20.0743 9.50008 21.185 10.751C21.2416 10.7998 25.8304 15.2488 25.8304 15.2488C26.8161 12.0553 29.4879 9.58595 32.9094 8.92453C33.8126 8.74813 34.6968 8.68783 35.5387 8.74355C35.6589 8.75278 35.7769 8.76208 35.8971 8.7737C37.9745 8.98258 39.9011 9.93178 41.382 11.38L45.2257 15.1397C45.7256 13.659 46.6005 12.3037 47.7842 11.2245C49.7438 9.4328 52.2952 8.55553 54.9693 8.75278ZM37.9039 21.32C38.5806 20.7143 39.0711 19.9066 39.255 19.0039H39.2573C39.5026 17.8063 39.2621 16.6065 38.5829 15.6294C38.2693 15.1722 37.8755 14.7869 37.4157 14.4783C36.4182 13.8076 35.2015 13.5731 33.9847 13.8145C32.3176 14.1464 30.9593 15.4646 30.6032 17.0985C30.5985 17.1286 30.5938 17.1611 30.5867 17.1912C30.5443 17.3932 30.5136 17.5998 30.4994 17.811C30.4405 18.7277 30.6645 19.6165 31.1526 20.3894C31.5134 20.9626 32.011 21.4523 32.5911 21.8074C33.4258 22.3203 34.395 22.5361 35.3877 22.4363C36.2697 22.3482 37.0761 21.9977 37.7293 21.4686L37.7321 21.466C37.7339 21.4645 37.7371 21.4624 37.7371 21.4624L37.7384 21.4615L37.7402 21.4601L37.7411 21.4593C37.7506 21.4512 37.7605 21.443 37.7706 21.4349C37.7806 21.4268 37.7906 21.4186 37.8 21.4105C37.8331 21.3827 37.8661 21.3548 37.8991 21.3247L37.9039 21.32ZM54.7146 22.4131C56.7638 22.2066 58.4144 20.5936 58.6408 18.5791L58.6431 18.5815C58.7917 17.2493 58.3295 15.945 57.3722 15.0028C56.5327 14.1766 55.4126 13.724 54.2359 13.724C54.0732 13.724 53.9081 13.731 53.7431 13.7495C51.6326 13.9747 49.9631 15.7036 49.8263 17.7877C49.7673 18.7045 49.9914 19.5934 50.4795 20.3662C50.8403 20.9394 51.3379 21.4291 51.9179 21.7842C52.7527 22.2971 53.7218 22.513 54.7146 22.4131ZM84.3767 1.29554C80.9218 1.42318 78.6676 3.13594 78.6676 7.21826V27.4975H83.9048V13.0203H85.3617C86.5526 13.0203 87.5193 12.0688 87.5193 10.8967V8.68505H83.9048V7.947C83.9048 6.48256 84.4421 5.35 86.0578 5.35H87.5999V1.28626L84.379 1.29554H84.3767ZM75.8521 8.6855C76.2812 8.6855 76.7478 8.7203 77.2859 8.86423L77.2882 8.86655L77.3285 13.0486H77.2912C76.4378 13.0468 70.3695 13.0338 70.3695 18.8043L70.3294 27.4888H65.0922V8.6855H67.5752C69.0915 8.87353 70.3294 10.2544 70.3294 11.7559V12.9489C70.3294 12.9489 70.9685 8.6855 75.8521 8.6855ZM107.398 8.73868C102.123 8.73935 101.246 13.0879 101.246 13.0879V11.4401C101.246 9.94783 100.018 8.73868 98.5013 8.73868H96.026V27.4885H101.246L101.237 18.2494V17.5322C101.237 15.5479 102.871 13.9396 104.888 13.9396C106.904 13.9396 108.514 15.5201 108.538 17.4858C108.538 17.4914 108.537 17.5047 108.536 17.5252C108.533 17.6063 108.526 17.8018 108.528 18.0962C108.533 20.41 108.564 27.5002 108.564 27.5002L113.799 27.4885V15.8149C113.799 11.0391 111.009 8.73913 107.398 8.73868ZM124.379 22.3876C126.412 22.5478 128.181 21.3456 128.848 19.6096H129.544C132.109 19.6096 133.489 22.622 131.748 24.4763C130.003 26.333 127.506 27.4981 124.74 27.4981C118.489 27.4981 113.622 21.5545 115.668 15.1072C116.555 12.3153 118.779 10.0989 121.611 9.203C125.558 7.95211 129.331 9.18215 131.718 11.7002C133.482 13.5592 132.135 16.5972 129.55 16.5972H128.866C128.252 14.9425 126.636 13.7588 124.74 13.7588C122.213 13.7588 120.182 15.8638 120.361 18.3912C120.512 20.5031 122.236 22.2182 124.379 22.3876Z" fill="#2262DD"/>
</g>
</g>
</g>
</svg>
